# xmcd CD database file
#
# Track frame offsets:
#	150
#	18468
#	30680
#	45609
#	64948
#	74920
#	95031
#	109410
#	128736
#	141951
#	159768
#	175720
#
# Disc length: 2571 seconds
#
# Revision: 0
# Processed by: cddbd v1.5.2PL0 Copyright (c) Steve Scherf et al.
# Submitted via: CDex 1.51
#
DISCID=ac0a090c
DTITLE=Heather Blush and the Uppercuts - Verse
DYEAR=2009
DGENRE=Jazz
TTITLE0=Papaya, Papaya
TTITLE1=I Don't Believe Me Anymore
TTITLE2=I Believe In Dreams
TTITLE3=Fly Away, Little Bird
TTITLE4=Restless
TTITLE5=I Don't Blame You
TTITLE6=Apple Cider Song
TTITLE7=Intoxicating
TTITLE8=Speechless
TTITLE9=Silly Boy/Silly Girl
TTITLE10=Baby, It's Late
TTITLE11=When You're Smiling/Smile Medly
EXTD=YEAR: 2009
EXTT0=
EXTT1=
EXTT2=
EXTT3=
EXTT4=
EXTT5=
EXTT6=
EXTT7=
EXTT8=
EXTT9=
EXTT10=
EXTT11=
PLAYORDER=
